<?xml version="1.0" encoding="utf-8"?>
<!-- Generator: Adobe Illustrator 21.1.0, SVG Export Plug-In . SVG Version: 6.00 Build 0)  -->
<svg version="1.1" id="Layer_1" xmlns="http://www.w3.org/2000/svg" xmlns:xlink="http://www.w3.org/1999/xlink" x="0px" y="0px"
	 viewBox="0 0 100 100" style="enable-background:new 0 0 100 100;" xml:space="preserve">
<title>67 all</title>
<g>
	<path d="M40.4,67.2c-5.4,0-9.7,4.4-9.7,9.7c0,5.4,4.4,9.7,9.7,9.7s9.7-4.4,9.7-9.7S45.7,67.2,40.4,67.2z M40.4,80.6
		c-2.1,0-3.7-1.7-3.7-3.7s1.7-3.7,3.7-3.7s3.7,1.7,3.7,3.7S42.4,80.6,40.4,80.6z"/>
	<path d="M68.7,67.2c-5.4,0-9.7,4.4-9.7,9.7s4.4,9.7,9.7,9.7c5.4,0,9.7-4.4,9.7-9.7C78.4,71.5,74.1,67.2,68.7,67.2z M68.7,80.6
		c-2.1,0-3.7-1.7-3.7-3.7s1.7-3.7,3.7-3.7c2.1,0,3.7,1.7,3.7,3.7S70.8,80.6,68.7,80.6z"/>
	<path d="M83.8,31.2c-0.2-0.1-0.4-0.1-0.7-0.1H32.8l-2.7-13.3c-0.2-1.2-1.2-2.2-2.4-2.4l-11.4-2l-1,5.9l9.4,1.7l8.6,42.8
		c0.3,1.4,1.5,2.4,2.9,2.4h40.3c1.4,0,2.6-1,2.9-2.3l6.7-29.1C86.5,33.1,85.5,31.5,83.8,31.2z M74.1,60.2H38.6L34,37.1h45.4
		L74.1,60.2z"/>
</g>
</svg>
