<svg xmlns="http://www.w3.org/2000/svg" width="24" height="36" viewBox="0 0 24 36">
  <metadata><?xpacket begin="﻿" id="W5M0MpCehiHzreSzNTczkc9d"?>
<x:xmpmeta xmlns:x="adobe:ns:meta/" x:xmptk="Adobe XMP Core 5.6-c138 79.159824, 2016/09/14-01:09:01        ">
   <rdf:RDF xmlns:rdf="http://www.w3.org/1999/02/22-rdf-syntax-ns#">
      <rdf:Description rdf:about=""/>
   </rdf:RDF>
</x:xmpmeta>
                                                                                                    
                                                                                                    
                                                                                                    
                                                                                                    
                                                                                                    
                                                                                                    
                                                                                                    
                                                                                                    
                                                                                                    
                                                                                                    
                                                                                                    
                                                                                                    
                                                                                                    
                                                                                                    
                                                                                                    
                                                                                                    
                                                                                                    
                                                                                                    
                                                                                                    
                                                                                                    
                           
<?xpacket end="w"?></metadata>
<defs>
    <style>
      .cls-1 {
        fill: #fff;
        fill-rule: evenodd;
      }
    </style>
  </defs>
  <path class="cls-1" d="M488,802a12,12,0,1,0-17.829,10.477v3.044h0A3.487,3.487,0,0,0,466.692,819v3.521A3.488,3.488,0,0,0,470.17,826h11.7a3.488,3.488,0,0,0,3.478-3.478V819a3.487,3.487,0,0,0-3.478-3.478h0v-3.044A11.972,11.972,0,0,0,488,802Zm-4.392,17v3.521a1.744,1.744,0,0,1-1.739,1.739H470.127a1.743,1.743,0,0,1-1.739-1.739V819a1.743,1.743,0,0,1,1.739-1.739h11.7A1.754,1.754,0,0,1,483.607,819Zm-8.305-13.26H473.78a0.87,0.87,0,1,1,0-1.739H475.3v1.739Zm1.739,9.782v-8.043h2.652a0.87,0.87,0,1,0,0-1.739h-2.652v-2.609a0.873,0.873,0,0,0-.87-0.87H473.78a2.609,2.609,0,1,0,0,5.218H475.3v8.043H471.91v-3.478a0.85,0.85,0,0,0-.479-0.87,10.167,10.167,0,0,1-5.7-9.173,10.262,10.262,0,0,1,20.524,0,10.167,10.167,0,0,1-5.7,9.173,0.848,0.848,0,0,0-.478.87v3.478h-3.044Z" transform="translate(-464 -790)"/>
</svg>
