<?xml version="1.0" encoding="utf-8"?>
<!-- Generator: Adobe Illustrator 21.1.0, SVG Export Plug-In . SVG Version: 6.00 Build 0)  -->
<svg version="1.1" id="Layer_1" xmlns="http://www.w3.org/2000/svg" xmlns:xlink="http://www.w3.org/1999/xlink" x="0px" y="0px"
	 viewBox="0 0 100 100" style="enable-background:new 0 0 100 100;" xml:space="preserve">
<style type="text/css">
	.st0{fill:#FFFFFF;}
</style>
<g>
	<circle class="st0" cx="47.3" cy="37.2" r="12"/>
	<path class="st0" d="M47.3,5C29.8,5,15.5,19.3,15.5,36.8c0,25.1,28.1,54.1,29.3,55.4l2.4,2.4l2.6-2.4c1.3-1.1,29.4-28.1,29.4-55.4
		C79.2,19.3,64.8,5,47.3,5z M47.5,84.5c-6.7-7.6-24.8-29.4-24.8-47.6c0-13.6,11-24.7,24.7-24.7C61,12.2,72,23.2,72,36.8
		C72,56.5,54.2,77.3,47.5,84.5z"/>
</g>
</svg>
