<?xml version="1.0" encoding="utf-8"?>
<!-- Generator: Adobe Illustrator 21.1.0, SVG Export Plug-In . SVG Version: 6.00 Build 0)  -->
<svg version="1.1" id="Layer_1" xmlns="http://www.w3.org/2000/svg" xmlns:xlink="http://www.w3.org/1999/xlink" x="0px" y="0px"
	 viewBox="0 0 100 100" style="enable-background:new 0 0 100 100;" xml:space="preserve">
<path d="M79.7,75.5L64.3,60.1c7.6-9.7,6.9-23.9-2-32.9c-9.7-9.7-25.5-9.7-35.1,0c-9.7,9.7-9.7,25.5,0,35.1
	c4.8,4.8,11.2,7.3,17.6,7.3c5.4,0,10.8-1.8,15.3-5.3l15.4,15.4c0.6,0.6,1.4,0.9,2.1,0.9s1.5-0.3,2.1-0.9
	C80.9,78.5,80.9,76.6,79.7,75.5z M31.4,58.1c-7.3-7.3-7.3-19.3,0-26.7c3.7-3.7,8.5-5.5,13.3-5.5c4.8,0,9.6,1.8,13.3,5.5
	c7.3,7.4,7.3,19.4,0,26.7C50.7,65.4,38.8,65.4,31.4,58.1z"/>
</svg>
