<?xml version="1.0" encoding="utf-8"?>
<!-- Generator: Adobe Illustrator 21.1.0, SVG Export Plug-In . SVG Version: 6.00 Build 0)  -->
<svg version="1.1" id="Layer_1" xmlns="http://www.w3.org/2000/svg" xmlns:xlink="http://www.w3.org/1999/xlink" x="0px" y="0px"
	 viewBox="0 0 100 100" style="enable-background:new 0 0 100 100;" xml:space="preserve">
<style type="text/css">
	.st0{fill:#ACACAD;}
</style>
<title>Artboard 3</title>
<path class="st0" d="M6.3,79.6h6.7C14.7,85.8,20.4,90,26.9,90c6.5,0.1,12.2-4.2,13.9-10.4h17.4C60,85.8,65.7,90,72.1,90
	c6.5,0.1,12.2-4.2,13.9-10.4h7.7c3,0,5.4-2.4,5.4-5.3c0,0,0,0,0,0V15.4c0-3-2.4-5.4-5.4-5.4H46.8c-3,0-5.4,2.4-5.4,5.4l0,2.3H23
	c-2,0-3.8,1-4.9,2.7L2.3,45.1c-1,1.5-1.5,3.3-1.5,5.1v24C0.9,77.2,3.2,79.6,6.3,79.6C6.2,79.6,6.2,79.6,6.3,79.6z M72.1,81.5
	c-3.3,0-6-2.7-6-6s2.7-6,6-6c3.3,0,6,2.7,6,6C78.1,78.8,75.5,81.5,72.1,81.5C72.1,81.5,72.1,81.5,72.1,81.5L72.1,81.5z M70.3,21.3
	c9.7,0,17.5,7.8,17.5,17.5S80,56.3,70.3,56.3s-17.5-7.8-17.5-17.5c0,0,0,0,0,0C52.8,29.1,60.6,21.3,70.3,21.3z M26.9,81.6
	c-3.3-0.1-5.9-2.7-6-6c0-3.3,2.7-6,6-6c3.3,0.1,5.9,2.7,6,6C32.8,78.9,30.2,81.5,26.9,81.6z M12.6,44.6L23.7,27
	c0.2-0.4,0.7-0.6,1.1-0.6H35c0.7,0,1.3,0.6,1.3,1.3v0v17.6c0,0.7-0.6,1.3-1.3,1.3h0H13.7c-0.7,0-1.3-0.6-1.3-1.3
	C12.4,45,12.4,44.8,12.6,44.6L12.6,44.6z M67.5,40.4c-0.2-0.2-0.3-0.4-0.3-0.7v-9.2c0-1.7,1.4-3.1,3.1-3.1c1.7,0,3.1,1.4,3.1,3.1v7
	L78,42c1.2,1.2,1.2,3.2,0,4.4s-3.2,1.2-4.4,0l0,0L67.5,40.4z"/>
</svg>
